<?xml version="1.0" encoding="UTF-8"?>
<svg id="Layer_1" data-name="Layer 1" xmlns="http://www.w3.org/2000/svg" viewBox="0 0 192 192">
  <defs>
    <style>
      .cls-1 {
        fill: none;
        stroke: #000;
        stroke-linecap: round;
        stroke-linejoin: round;
        stroke-width: 12px;
      }
    </style>
  </defs>
  <path class="cls-1" d="m69.38,93.6c6.17,12.75,16.48,23.03,29.25,29.18,1.92.91,4.17.74,5.92-.45l18.75-12.52c1.68-1.14,3.84-1.34,5.7-.52l35.1,15.08c2.47,1.03,3.94,3.58,3.6,6.23-2.3,17.96-17.59,31.42-35.7,31.42-56.33,0-102-45.67-102-102,0-18.11,13.46-33.4,31.43-35.7,2.65-.34,5.2,1.13,6.23,3.6l15.07,35.18c.8,1.83.63,3.94-.45,5.62l-12.53,19.05c-1.13,1.75-1.28,3.97-.38,5.85Z"/>
</svg>